<?xml version="1.0"?>
<svg xmlns="http://www.w3.org/2000/svg" xmlns:xlink="http://www.w3.org/1999/xlink" id="Layer_1" data-name="Layer 1" viewBox="0 0 512 512" width="512" height="512"><defs><linearGradient id="linear-gradient" x1="404.044" y1="478" x2="404.044" y2="28.218" gradientUnits="userSpaceOnUse"><stop offset="0.322" stop-color="#a163f5"/><stop offset="0.466" stop-color="#b074ee"/><stop offset="0.752" stop-color="#d8a1dd"/><stop offset="0.898" stop-color="#efbad3"/></linearGradient><linearGradient id="linear-gradient-2" x1="256.001" y1="478" x2="256.001" y2="28.218" xlink:href="#linear-gradient"/></defs><title>Travel calander location plan</title><path d="M404.482,314.515l-.424,0c-21.314,0-38.779,17.616-39.02,39.466a40.111,40.111,0,0,0,11.06,28.277A38.314,38.314,0,0,0,403.6,394.3l.433,0a38.321,38.321,0,0,0,27.335-11.439,40.107,40.107,0,0,0,11.679-28.026C443.293,332.841,425.991,314.752,404.482,314.515ZM422.867,374.4a26.473,26.473,0,0,1-19.13,7.9h0a26.4,26.4,0,0,1-18.95-8.322,28.167,28.167,0,0,1-7.748-19.868c.168-15.28,12.262-27.6,27.022-27.6l.291,0c14.892.164,26.87,12.81,26.7,28.19A28.163,28.163,0,0,1,422.867,374.4Z" style="fill:url(#linear-gradient)"/><path d="M486.877,355.844a86.682,86.682,0,0,0-24.42-55.706,80.975,80.975,0,0,0-52.477-24.406v-88.7a5.948,5.948,0,0,0,0-4.935V117.982a40.884,40.884,0,0,0-40.838-40.837H353V65.056A31.8,31.8,0,0,0,321.237,33.3h-1.382a31.8,31.8,0,0,0-31.761,31.761V77.145H146.887V65.056A31.8,31.8,0,0,0,115.125,33.3h-1.382A31.8,31.8,0,0,0,81.982,65.056V77.145H65.839A40.884,40.884,0,0,0,25,117.982V394.648a40.885,40.885,0,0,0,40.839,40.839H360.418l37.9,41.277a6,6,0,0,0,4.353,1.941h.066a6,6,0,0,0,4.329-1.846l55.3-57.619a87.939,87.939,0,0,0,19.195-29.758A81.809,81.809,0,0,0,486.877,355.844ZM319.855,45.3h1.382A19.783,19.783,0,0,1,341,65.056V81.422a5.968,5.968,0,0,0,0,3.445v3.2a19.783,19.783,0,0,1-19.762,19.761h-1.382a19.783,19.783,0,0,1-19.761-19.761V65.056A19.783,19.783,0,0,1,319.855,45.3Zm-206.112,0h1.382a19.784,19.784,0,0,1,19.762,19.761V88.064a19.784,19.784,0,0,1-19.762,19.761h-1.382A19.783,19.783,0,0,1,93.982,88.064V83.222c0-.026,0-.051,0-.077s0-.052,0-.078V65.056A19.783,19.783,0,0,1,113.743,45.3Zm-47.9,43.85H82.01a31.793,31.793,0,0,0,31.733,30.68h1.382a31.793,31.793,0,0,0,31.734-30.68H288.121a31.793,31.793,0,0,0,31.734,30.68h1.382a31.794,31.794,0,0,0,31.735-30.68h16.17a28.87,28.87,0,0,1,28.838,28.837v60.579H37V117.982A28.871,28.871,0,0,1,65.839,89.145Zm0,334.342A28.872,28.872,0,0,1,37,394.648V190.561H397.98V275.74a80.955,80.955,0,0,0-51.14,23.125A86.687,86.687,0,0,0,321.2,354.021a81.825,81.825,0,0,0,4.568,33.747A87.909,87.909,0,0,0,344.3,417.94l5.093,5.547Zm404.5-38.242a76.043,76.043,0,0,1-16.627,25.687l-50.876,53.007-49.7-54.116a76,76,0,0,1-16.057-26.045,69.909,69.909,0,0,1-3.923-28.826,74.691,74.691,0,0,1,22.084-47.523A69.124,69.124,0,0,1,403.918,287.5c.021,0,.042,0,.062,0s.058,0,.087,0q.357,0,.713,0a69.138,69.138,0,0,1,49.084,21.01,74.682,74.682,0,0,1,21.032,48A69.912,69.912,0,0,1,470.342,385.245Z" style="fill:url(#linear-gradient-2)"/></svg>
