<svg class="ldi-dl58ag" width="356px"  height="356px"  xmlns="http://www.w3.org/2000/svg" xmlns:xlink="http://www.w3.org/1999/xlink" viewBox="0 0 100 100" preserveAspectRatio="xMidYMid" style="background: none;"><!--?xml version="1.0" encoding="utf-8"?--><!--Generator: Adobe Illustrator 21.0.0, SVG Export Plug-In . SVG Version: 6.00 Build 0)--><svg version="1.1" id="Layer_1" xmlns="http://www.w3.org/2000/svg" xmlns:xlink="http://www.w3.org/1999/xlink" x="0px" y="0px" viewBox="0 0 100 100" style="transform-origin: 50px 50px 0px;" xml:space="preserve"><g style="transform-origin: 50px 50px 0px;"><g style="transform-origin: 50px 50px 0px; transform: scale(0.44);"><g style="transform-origin: 50px 50px 0px;"><g><g class="ld ld-breath" style="transform-origin: 50px 50px 0px; animation-duration: 4.1s; animation-delay: -4.1s; animation-direction: normal;"><ellipse style="fill:#323232" cx="50" cy="87.015" rx="10.917" ry="2.985" fill="rgb(50, 50, 50)"></ellipse></g><g style="transform-origin: 50px 50px 0px;"><g><g class="ld ld-breath" style="transform-origin: 50px 50px 0px; animation-duration: 4.1s; animation-delay: -3.82667s; animation-direction: normal;"><path style="fill:#c33736" d="M46.786,10.178c-13.125,1.452-23.614,12.15-24.838,25.298c-0.995,10.689,3.986,20.287,11.987,25.846 C41.979,66.912,47.628,75.313,49.079,85l0.121,0.806c0.082,0.548,0.552,0.953,1.106,0.953c0.554,0,1.024-0.405,1.106-0.953 l0.265-1.77c1.393-9.297,6.785-17.378,14.482-22.775c7.267-5.096,12.018-13.535,12.018-23.084 C78.177,21.557,63.787,8.297,46.786,10.178z M50,49.189c-6.082,0-11.012-4.93-11.012-11.012c0-6.082,4.93-11.012,11.012-11.012 s11.012,4.93,11.012,11.012C61.012,44.259,56.082,49.189,50,49.189z" fill="rgb(195, 55, 54)"></path></g><g class="ld ld-breath" style="transform-origin: 50px 50px 0px; animation-duration: 4.1s; animation-delay: -3.55333s; animation-direction: normal;"><path style="opacity: 0.1; fill: rgb(0, 0, 0);" d="M68.287,16.752c0.381,2.543,0.591,5.156,0.591,7.827c0,12.328-4.237,23.495-11.097,31.623 C52.636,62.297,50,70.123,50,78.101v8.603c0.099,0.029,0.199,0.056,0.306,0.056c0.554,0,1.024-0.405,1.106-0.953l0.265-1.77 c1.393-9.297,6.785-17.378,14.482-22.775c7.267-5.096,12.018-13.535,12.018-23.084C78.177,29.597,74.336,21.92,68.287,16.752z" fill="rgb(0, 0, 0)"></path></g><g class="ld ld-breath" style="transform-origin: 50px 50px 0px; animation-duration: 4.1s; animation-delay: -3.28s; animation-direction: normal;"><path style="fill:none;stroke:#fff;stroke-width:2;stroke-linecap:round;stroke-linejoin:round;stroke-miterlimit:10" d=" M29.526,24.474c2.065-3.095,4.764-5.56,8.19-7.395" stroke="rgb(255, 255, 255)"></path></g><g class="ld ld-breath" style="transform-origin: 50px 50px 0px; animation-duration: 4.1s; animation-delay: -3.00667s; animation-direction: normal;"><path style="fill:none;stroke:#fff;stroke-width:2;stroke-linecap:round;stroke-linejoin:round;stroke-miterlimit:10" d=" M26.604,30.355c0.231-0.64,0.478-1.262,0.742-1.866" stroke="rgb(255, 255, 255)"></path></g></g></g><metadata xmlns:d="https://loading.io/stock/" class="ld ld-breath" style="transform-origin: 50px 50px 0px; animation-duration: 4.1s; animation-delay: -2.73333s; animation-direction: normal;">
<d:name class="ld ld-breath" style="transform-origin: 50px 50px 0px; animation-duration: 4.1s; animation-delay: -2.46s; animation-direction: normal;">marker</d:name>
<d:tags class="ld ld-breath" style="transform-origin: 50px 50px 0px; animation-duration: 4.1s; animation-delay: -2.18667s; animation-direction: normal;">marker,location,localize,site,map,poi</d:tags>
<d:license class="ld ld-breath" style="transform-origin: 50px 50px 0px; animation-duration: 4.1s; animation-delay: -1.91333s; animation-direction: normal;">cc-by</d:license>
<d:slug class="ld ld-breath" style="transform-origin: 50px 50px 0px; animation-duration: 4.1s; animation-delay: -1.64s; animation-direction: normal;">dl58ag</d:slug>
</metadata></g></g></g></g><style type="text/css" class="ld ld-breath" style="transform-origin: 50px 50px 0px; animation-duration: 4.1s; animation-delay: -1.36667s; animation-direction: normal;">@keyframes ld-breath {
  0% {
    -webkit-transform: scale(0.86);
    transform: scale(0.86);
  }
  50% {
    -webkit-transform: scale(1.06);
    transform: scale(1.06);
  }
  100% {
    -webkit-transform: scale(0.86);
    transform: scale(0.86);
  }
}
@-webkit-keyframes ld-breath {
  0% {
    -webkit-transform: scale(0.86);
    transform: scale(0.86);
  }
  50% {
    -webkit-transform: scale(1.06);
    transform: scale(1.06);
  }
  100% {
    -webkit-transform: scale(0.86);
    transform: scale(0.86);
  }
}
.ld.ld-breath {
  -webkit-animation: ld-breath 1s infinite;
  animation: ld-breath 1s infinite;
}
</style></svg></svg>