<svg height="512pt" viewBox="0 0 512 512" width="512pt" xmlns="http://www.w3.org/2000/svg" xmlns:xlink="http://www.w3.org/1999/xlink"><linearGradient id="a" gradientUnits="userSpaceOnUse" x1="0" x2="512" y1="255.999" y2="255.999"><stop offset="0" stop-color="#80d8ff"/><stop offset="1" stop-color="#ea80fc"/></linearGradient><path d="m462 0h-412c-27.570312 0-50 22.429688-50 50v333.332031c0 27.570313 22.429688 50 50 50h119.050781l72.808594 72.8125c7.804687 7.804688 20.472656 7.804688 28.28125 0l72.808594-72.8125h119.050781c27.570312 0 50-22.429687 50-50v-333.332031c0-27.570312-22.429688-50-50-50zm-127.332031 393.332031c-5.304688 0-10.394531 2.109375-14.144531 5.859375l-64.523438 64.523438-64.523438-64.523438c-3.75-3.75-8.839843-5.855468-14.140624-5.855468h-57.207032c9.710938-66.28125 66.9375-117.335938 135.871094-117.335938s126.160156 51.054688 135.875 117.335938h-57.207031zm-137.335938-216c0-32.347656 26.320313-58.664062 58.667969-58.664062s58.667969 26.316406 58.667969 58.664062c0 32.351563-26.320313 58.667969-58.667969 58.667969s-58.667969-26.316406-58.667969-58.667969zm274.667969 206c0 5.515625-4.484375 10-10 10h-29.800781c-7.355469-65.234375-50.242188-119.859375-108.800781-144.011719 19.230468-18.015624 31.265624-43.621093 31.265624-71.988281 0-54.402343-44.261718-98.664062-98.664062-98.664062-54.40625 0-98.667969 44.261719-98.667969 98.664062 0 28.367188 12.035157 53.972657 31.265625 71.988281-58.554687 24.152344-101.441406 78.777344-108.796875 144.011719h-29.800781c-5.515625 0-10-4.484375-10-10v-333.332031c0-5.515625 4.484375-10 10-10h412c5.515625 0 10 4.484375 10 10zm0 0" fill="url(#a)"/></svg>