<?xml version="1.0"?>
<svg xmlns="http://www.w3.org/2000/svg" xmlns:xlink="http://www.w3.org/1999/xlink" id="Layer_1" data-name="Layer 1" viewBox="0 0 512 512" width="512" height="512"><defs><linearGradient id="linear-gradient" x1="360.136" y1="478" x2="360.136" y2="25.558" gradientUnits="userSpaceOnUse"><stop offset="0.322" stop-color="#a163f5"/><stop offset="0.466" stop-color="#b074ee"/><stop offset="0.752" stop-color="#d8a1dd"/><stop offset="0.898" stop-color="#efbad3"/></linearGradient><linearGradient id="linear-gradient-2" x1="354.136" y1="478" x2="354.136" y2="25.558" xlink:href="#linear-gradient"/><linearGradient id="linear-gradient-3" x1="138.136" y1="478" x2="138.136" y2="25.558" xlink:href="#linear-gradient"/><linearGradient id="linear-gradient-4" x1="103.136" y1="478" x2="103.136" y2="25.558" xlink:href="#linear-gradient"/><linearGradient id="linear-gradient-5" x1="93.136" y1="478" x2="93.136" y2="25.558" xlink:href="#linear-gradient"/><linearGradient id="linear-gradient-6" x1="405.136" y1="478" x2="405.136" y2="25.558" xlink:href="#linear-gradient"/><linearGradient id="linear-gradient-7" x1="288.736" y1="478" x2="288.736" y2="25.558" xlink:href="#linear-gradient"/><linearGradient id="linear-gradient-8" x1="348.736" y1="478" x2="348.736" y2="25.558" xlink:href="#linear-gradient"/><linearGradient id="linear-gradient-9" x1="211.716" y1="478" x2="211.716" y2="25.558" xlink:href="#linear-gradient"/><linearGradient id="linear-gradient-10" x1="214.239" y1="478" x2="214.239" y2="25.558" xlink:href="#linear-gradient"/><linearGradient id="linear-gradient-12" x1="230.44" y1="478" x2="230.44" y2="25.558" xlink:href="#linear-gradient"/><linearGradient id="linear-gradient-13" x1="166.136" y1="478" x2="166.136" y2="25.558" xlink:href="#linear-gradient"/><linearGradient id="linear-gradient-14" x1="88.136" y1="478" x2="88.136" y2="25.558" xlink:href="#linear-gradient"/><linearGradient id="linear-gradient-15" x1="88.136" y1="478" x2="88.136" y2="25.558" xlink:href="#linear-gradient"/><linearGradient id="linear-gradient-16" x1="433.864" y1="478" x2="433.864" y2="25.558" xlink:href="#linear-gradient"/><linearGradient id="linear-gradient-17" x1="433.864" y1="478" x2="433.864" y2="25.558" xlink:href="#linear-gradient"/></defs><title>Map Location road map</title><path d="M470.136,212a6,6,0,0,0,0-12h-220a6,6,0,0,0-6,6V306a6,6,0,0,0,6,6h220a6,6,0,0,0,0-12h-214V212Z" style="fill:url(#linear-gradient)"/><path d="M340.136,123.764h28a6,6,0,0,0,0-12h-22V20a6,6,0,0,0-12,0v97.764A6,6,0,0,0,340.136,123.764Z" style="fill:url(#linear-gradient-2)"/><path d="M28.136,142h220a6,6,0,0,0,6-6V20a6,6,0,1,0-12,0V130h-214a6,6,0,1,0,0,12Z" style="fill:url(#linear-gradient-3)"/><path d="M28.136,230.236h144v88h-15a6,6,0,1,0,0,12h21a6,6,0,0,0,6-6v-100a6,6,0,0,0-6-6h-150a6,6,0,1,0,0,12Z" style="fill:url(#linear-gradient-4)"/><path d="M158.136,398.236h-130a6,6,0,0,0,0,12h124V492a6,6,0,0,0,12,0V404.236A6,6,0,0,0,158.136,398.236Z" style="fill:url(#linear-gradient-5)"/><path d="M470.136,378.236h-130a6,6,0,0,0-6,6V492a6,6,0,0,0,12,0V390.236h124a6,6,0,1,0,0-12Z" style="fill:url(#linear-gradient-6)"/><path d="M273.736,178.528h30a6,6,0,0,0,0-12h-30a6,6,0,0,0,0,12Z" style="fill:url(#linear-gradient-7)"/><path d="M333.736,178.528h30a6,6,0,0,0,0-12h-30a6,6,0,0,0,0,12Z" style="fill:url(#linear-gradient-8)"/><path d="M214.239,325.6a6,6,0,0,0-6,6v15.468a13.976,13.976,0,0,1-3.531,9.3,6,6,0,1,0,8.969,7.972,25.961,25.961,0,0,0,6.562-17.268V331.6A6,6,0,0,0,214.239,325.6Z" style="fill:url(#linear-gradient-9)"/><path d="M214.239,205.6a6,6,0,0,0-6,6v30a6,6,0,0,0,12,0v-30A6,6,0,0,0,214.239,205.6Z" style="fill:url(#linear-gradient-10)"/><path d="M214.239,265.6a6,6,0,0,0-6,6v30a6,6,0,0,0,12,0v-30A6,6,0,0,0,214.239,265.6Z" style="fill:url(#linear-gradient-10)"/><path d="M249.736,172.528a6,6,0,0,0-6-6h-9.5a25.832,25.832,0,0,0-22.219,12.493,6,6,0,1,0,10.25,6.241,13.916,13.916,0,0,1,11.969-6.734h9.5A6,6,0,0,0,249.736,172.528Z" style="fill:url(#linear-gradient-12)"/><path d="M181.136,361.072h-30a6,6,0,1,0,0,12h30a6,6,0,0,0,0-12Z" style="fill:url(#linear-gradient-13)"/><path d="M88.136,266.714c-15.124,0-27.429,12.563-27.429,28s12.305,28,27.429,28,27.428-12.563,27.428-28S103.26,266.714,88.136,266.714Zm0,44.009c-8.508,0-15.429-7.18-15.429-16s6.921-16,15.429-16,15.428,7.18,15.428,16S96.644,310.723,88.136,310.723Z" style="fill:url(#linear-gradient-14)"/><path d="M140.688,317.655a55.233,55.233,0,0,0,3.33-22.737,58.384,58.384,0,0,0-16.86-37.332,55.1,55.1,0,0,0-78.044,0,58.383,58.383,0,0,0-16.859,37.332,55.226,55.226,0,0,0,3.328,22.737,59.18,59.18,0,0,0,12.692,20.173l35.487,37.8a6,6,0,0,0,8.748,0l2.4-2.555h26.228a6,6,0,0,0,0-12H106.175L128,337.828A59.173,59.173,0,0,0,140.688,317.655ZM89.5,361.305a5.974,5.974,0,0,0-1.869.907l-30.6-32.6a47.289,47.289,0,0,1-10.167-16.072,43.318,43.318,0,0,1-2.628-17.823,46.373,46.373,0,0,1,13.386-29.662,43.1,43.1,0,0,1,61.043,0,46.38,46.38,0,0,1,13.388,29.662,43.327,43.327,0,0,1-2.63,17.823,47.248,47.248,0,0,1-10.166,16.072Z" style="fill:url(#linear-gradient-15)"/><path d="M433.864,69.025c-15.124,0-27.428,12.562-27.428,28s12.3,28,27.428,28,27.429-12.562,27.429-28S448.988,69.025,433.864,69.025Zm0,44.008c-8.508,0-15.428-7.179-15.428-16s6.92-16,15.428-16,15.429,7.179,15.429,16S442.372,113.033,433.864,113.033Z" style="fill:url(#linear-gradient-16)"/><path d="M472.886,59.9a55.1,55.1,0,0,0-78.044,0,58.379,58.379,0,0,0-16.86,37.332,55.23,55.23,0,0,0,3.33,22.736A59.177,59.177,0,0,0,394,140.139l24.775,26.389H393.736a6,6,0,0,0,0,12h30a5.98,5.98,0,0,0,4.448-1.982l1.306,1.392a6,6,0,0,0,8.748,0l35.487-37.8a59.184,59.184,0,0,0,12.692-20.174,55.219,55.219,0,0,0,3.328-22.736A58.378,58.378,0,0,0,472.886,59.9Zm2.258,55.955a47.284,47.284,0,0,1-10.167,16.073l-31.113,33.139-31.113-33.139a47.261,47.261,0,0,1-10.166-16.073,43.325,43.325,0,0,1-2.63-17.823,46.384,46.384,0,0,1,13.388-29.662,43.1,43.1,0,0,1,61.043,0,46.377,46.377,0,0,1,13.386,29.662A43.315,43.315,0,0,1,475.144,115.852Z" style="fill:url(#linear-gradient-17)"/></svg>
