<svg height="496pt" viewBox="0 0 496 496" width="496pt" xmlns="http://www.w3.org/2000/svg" xmlns:xlink="http://www.w3.org/1999/xlink"><linearGradient id="a" gradientUnits="userSpaceOnUse" x1="248" x2="248" y1="496" y2="0"><stop offset="0" stop-color="#9f2fff"/><stop offset="1" stop-color="#0bb1d3"/></linearGradient><path d="m56 496c30.878906 0 56-25.121094 56-56 0-28.152344-20.902344-51.457031-48-55.359375v-40.640625c0-13.230469 10.769531-24 24-24h112v-16h-112c-22.054688 0-40 17.945312-40 40v40.640625c-27.097656 3.902344-48 27.207031-48 55.359375 0 30.878906 25.121094 56 56 56zm0-96c22.054688 0 40 17.945312 40 40s-17.945312 40-40 40-40-17.945312-40-40 17.945312-40 40-40zm0 64c13.230469 0 24-10.769531 24-24s-10.769531-24-24-24-24 10.769531-24 24 10.769531 24 24 24zm0-32c4.40625 0 8 3.59375 8 8s-3.59375 8-8 8-8-3.59375-8-8 3.59375-8 8-8zm224-128h16v16h-16zm-32 16v-16h16v16zm-32-16h16v16h-16zm192-304c-48.519531 0-88 39.480469-88 88 0 29.679688 15.214844 57.496094 40 73.671875v6.328125h-16v16h16v16h-16v16h16v32h40v32c0 13.230469-10.769531 24-24 24h-64v16h64c22.054688 0 40-17.945312 40-40v-32h40v-32h16v-16h-16v-16h16v-16h-16v-6.328125c24.785156-16.183594 40-44 40-73.671875 0-48.519531-39.480469-88-88-88zm32 232h-64v-16h64zm0-32h-64v-16h64zm-40-112c0-4.40625 3.59375-8 8-8s8 3.59375 8 8-3.59375 8-8 8-8-3.59375-8-8zm43.992188 62.289062-3.992188 2.3125v15.398438h-24v-57.472656c9.289062-3.3125 16-12.113282 16-22.527344 0-13.230469-10.769531-24-24-24s-24 10.769531-24 24c0 10.414062 6.710938 19.214844 16 22.527344v57.472656h-24v-15.398438l-3.992188-2.3125c-22.207031-12.863281-36.007812-36.738281-36.007812-62.289062 0-39.695312 32.304688-72 72-72s72 32.304688 72 72c0 25.550781-13.800781 49.425781-36.007812 62.289062zm-9.648438 220.054688 18.34375-18.34375-18.34375-18.34375 11.3125-11.3125 18.34375 18.34375 18.34375-18.34375 11.3125 11.3125-18.34375 18.34375 18.34375 18.34375-11.3125 11.3125-18.34375-18.34375-18.34375 18.34375zm-244.6875 19.3125-18.34375 18.34375 18.34375 18.34375-11.3125 11.3125-18.34375-18.34375-18.34375 18.34375-11.3125-11.3125 18.34375-18.34375-18.34375-18.34375 11.3125-11.3125 18.34375 18.34375 18.34375-18.34375zm-187.3125-339.3125 18.34375-18.34375-18.34375-18.34375 11.3125-11.3125 18.34375 18.34375 18.34375-18.34375 11.3125 11.3125-18.34375 18.34375 18.34375 18.34375-11.3125 11.3125-18.34375-18.34375-18.34375 18.34375zm216 88 18.34375-18.34375-18.34375-18.34375 11.3125-11.3125 18.34375 18.34375 18.34375-18.34375 11.3125 11.3125-18.34375 18.34375 18.34375 18.34375-11.3125 11.3125-18.34375-18.34375-18.34375 18.34375zm-216 128 18.34375-18.34375-18.34375-18.34375 11.3125-11.3125 18.34375 18.34375 18.34375-18.34375 11.3125 11.3125-18.34375 18.34375 18.34375 18.34375-11.3125 11.3125-18.34375-18.34375-18.34375 18.34375zm149.65625-130.34375c0-17.648438-14.351562-32-32-32s-32 14.351562-32 32 14.351562 32 32 32 32-14.351562 32-32zm-48 0c0-8.824219 7.175781-16 16-16s16 7.175781 16 16-7.175781 16-16 16-16-7.175781-16-16zm224 328c17.648438 0 32-14.351562 32-32s-14.351562-32-32-32-32 14.351562-32 32 14.351562 32 32 32zm0-48c8.824219 0 16 7.175781 16 16s-7.175781 16-16 16-16-7.175781-16-16 7.175781-16 16-16zm0 0" fill="url(#a)"/></svg>