<?xml version="1.0"?>
<svg xmlns="http://www.w3.org/2000/svg" id="Flat" viewBox="0 0 64 64" width="512" height="512"><title>Timer icon</title><desc>Timer icon for website, application, printing, document, poster design, etc.</desc><metadata><?xpacket begin="﻿" id="W5M0MpCehiHzreSzNTczkc9d"?><x:xmpmeta xmlns:x="adobe:ns:meta/" x:xmptk="Adobe XMP Core 5.6-c145 79.163499, 2018/08/13-16:40:22        "><rdf:RDF xmlns:rdf="http://www.w3.org/1999/02/22-rdf-syntax-ns#"><rdf:Description xmlns:dc="http://purl.org/dc/elements/1.1/" rdf:about=""><dc:title><rdf:Alt><rdf:li xml:lang="x-default">Timer icon</rdf:li></rdf:Alt></dc:title><dc:description><rdf:Alt><rdf:li xml:lang="x-default">Timer icon for website, application, printing, document, poster design, etc.</rdf:li></rdf:Alt></dc:description><dc:subject><rdf:Bag><rdf:li xml:lang="x-default">Timer</rdf:li><rdf:li>stop</rdf:li><rdf:li>watch</rdf:li><rdf:li>time</rdf:li><rdf:li>date</rdf:li><rdf:li>clock</rdf:li><rdf:li>tool</rdf:li></rdf:Bag></dc:subject></rdf:Description></rdf:RDF></x:xmpmeta><?xpacket end="w"?></metadata><g id="Flat_copy" data-name="Flat copy"><circle cx="32" cy="39" r="22" style="fill:#4e80f2"/><path d="M39,52A22,22,0,0,1,18.72,21.46,22,22,0,1,0,52.28,47.54,21.89,21.89,0,0,1,39,52Z" style="fill:#054def"/><path d="M53.51,34.39A22,22,0,0,0,25.4,18,33,33,0,0,1,53.51,34.39Z" style="fill:#98b4f4"/><circle cx="32" cy="39" r="18" style="fill:#fea4a7"/><rect x="11.94" y="14.06" width="8" height="4" rx="1" ry="1" transform="translate(-6.33 12.05) rotate(-35)" style="fill:#fea4a7"/><rect x="44.06" y="14.06" width="8" height="4" rx="1" ry="1" transform="translate(17.91 -24.66) rotate(35)" style="fill:#fea4a7"/><path d="M32,17a22.78,22.78,0,0,1,3,.21V10H29v7.21A22.78,22.78,0,0,1,32,17Z" style="fill:#3cc37f"/><path d="M32,21a18,18,0,0,0-14.56,7.44A18,18,0,0,1,42.56,53.56,18,18,0,0,0,32,21Z" style="fill:#fe6569"/><path d="M16,30.82A17.87,17.87,0,0,0,14,39c0,.41,0,.81.06,1.22L30.78,56.94c.41,0,.81.06,1.22.06a17.87,17.87,0,0,0,8.18-2Z" style="fill:#fee4e5"/><rect x="45.06" y="16.67" width="2.36" height="4" transform="matrix(0.57, -0.82, 0.82, 0.57, 4.43, 45.84)" style="fill:#2b8d5c"/><path d="M43.92,18.49l-1,1.42A22,22,0,0,1,46.2,22.2l1-1.42Z" style="fill:#3cc37f"/><path d="M16.77,20.74l1,1.46a22,22,0,0,1,3.27-2.29L20,18.41Z" style="fill:#3cc37f"/><polygon points="18.73 16.55 15.45 18.85 16.77 20.74 20.02 18.41 18.73 16.55" style="fill:#2b8d5c"/><path d="M50.76,17.18l.78-1.12L46.75,12.7a1,1,0,0,0-1.39.25l-.78,1.12,4.79,3.35A1,1,0,0,0,50.76,17.18Z" style="fill:#fee4e5"/><path d="M17.25,12.7l-4.79,3.36.78,1.12a1,1,0,0,0,1.39.24l4.79-3.35L18.64,13A1,1,0,0,0,17.25,12.7Z" style="fill:#fee4e5"/><path d="M31,10h4a0,0,0,0,1,0,0v5a0,0,0,0,1,0,0H34a3,3,0,0,1-3-3V10A0,0,0,0,1,31,10Z" style="fill:#7dcda4"/><path d="M29,45.2a1,1,0,0,1-.5-.14,1,1,0,0,1-.37-1.36l7-12.13a1,1,0,0,1,1.74,1l-7,12.13A1,1,0,0,1,29,45.2Z" style="fill:#3cc37f"/><path d="M37,11H27a1,1,0,0,1,0-2H37a1,1,0,0,1,0,2Z" style="fill:#4e80f2"/><circle cx="32" cy="39" r="2" style="fill:#4e80f2"/><path d="M32,26a1,1,0,0,0,1-1V21.05c-.33,0-.66-.05-1-.05s-.67,0-1,.05V25A1,1,0,0,0,32,26Z" style="fill:#3cc37f"/><path d="M32,52a1,1,0,0,0-1,1v4c.33,0,.66,0,1,0s.67,0,1,0V53A1,1,0,0,0,32,52Z" style="fill:#7dcda4"/><path d="M19,39a1,1,0,0,0-1-1H14.05c0,.33-.05.66-.05,1s0,.67.05,1H18A1,1,0,0,0,19,39Z" style="fill:#7dcda4"/><path d="M50,38H46a1,1,0,0,0,0,2h4c0-.33,0-.66,0-1S50,38.33,50,38Z" style="fill:#3cc37f"/><path d="M22.1,30.1a1,1,0,0,0,.71-.29,1,1,0,0,0,0-1.42L20,25.6A18.76,18.76,0,0,0,18.6,27l2.79,2.8A1,1,0,0,0,22.1,30.1Z" style="fill:#3cc37f"/><path d="M41.19,48.19a1,1,0,0,0,0,1.42L44,52.4A18.76,18.76,0,0,0,45.4,51l-2.79-2.8A1,1,0,0,0,41.19,48.19Z" style="fill:#3cc37f"/><path d="M22.81,48.19a1,1,0,0,0-1.42,0L18.6,51A18.76,18.76,0,0,0,20,52.4l2.8-2.79A1,1,0,0,0,22.81,48.19Z" style="fill:#3cc37f"/><path d="M41.19,29.81a1,1,0,0,0,1.42,0L45.4,27A18.76,18.76,0,0,0,44,25.6l-2.8,2.79A1,1,0,0,0,41.19,29.81Z" style="fill:#2b8d5c"/><path d="M37,15H35a1,1,0,0,1,0-2h2a3,3,0,0,0,3-3V7a3,3,0,0,0-3-3H27a3,3,0,0,0-3,3v3a3,3,0,0,0,3,3h2a1,1,0,0,1,0,2H27a5,5,0,0,1-5-5V7a5,5,0,0,1,5-5H37a5,5,0,0,1,5,5v3A5,5,0,0,1,37,15Z" style="fill:#4e80f2"/><path d="M37,2H29.92a10.6,10.6,0,0,0-.64,2H37a3,3,0,0,1,3,3v3a3,3,0,0,1-3,3H35a1,1,0,0,0,0,2h2a5,5,0,0,0,5-5V7A5,5,0,0,0,37,2Z" style="fill:#98b4f4"/><path d="M20,25.64A18.82,18.82,0,0,0,18.63,27l0,0,.42.41a18.23,18.23,0,0,1,1.87-.95L20,25.6Z" style="fill:#2b8d5c"/><path d="M44.52,50.11a18.23,18.23,0,0,1-1,1.87l.41.42,0,0A18.82,18.82,0,0,0,45.36,51l0,0Z" style="fill:#2b8d5c"/><path d="M33,21.05c-.33,0-.66-.05-1-.05s-.67,0-1,.05V25a.88.88,0,0,0,.06.28c.57.1,1.13.22,1.68.37A1,1,0,0,0,33,25Z" style="fill:#2b8d5c"/><path d="M50,40c0-.33,0-.66,0-1s0-.67,0-1H46a1,1,0,0,0-.65.26c.15.55.27,1.11.37,1.68A.88.88,0,0,0,46,40Z" style="fill:#2b8d5c"/><path d="M28.5,45.06a1,1,0,0,0,.5.14,1,1,0,0,0,.86-.5L28.4,43.24l-.27.46A1,1,0,0,0,28.5,45.06Z" style="fill:#7dcda4"/><path d="M22.81,48.19a1,1,0,0,0-1-.23L23,49.2A1,1,0,0,0,22.81,48.19Z" style="fill:#7dcda4"/></g></svg>
