<svg height="512pt" viewBox="0 0 512 512.00038" width="512pt" xmlns="http://www.w3.org/2000/svg" xmlns:xlink="http://www.w3.org/1999/xlink"><linearGradient id="a" gradientUnits="userSpaceOnUse" x1=".00019" x2="512.00019" y1="256" y2="256"><stop offset="0" stop-color="#80d8ff"/><stop offset="1" stop-color="#ea80fc"/></linearGradient><path d="m512 367.105469c0-42.398438-34.492188-76.890625-76.894531-76.890625h-.222657c-9.25-83.308594-75.578124-149.632813-158.882812-158.886719v-18.882813c22.15625-8.167968 38-29.488281 38-54.445312 0-31.980469-26.019531-58-58-58s-58 26.019531-58 58c0 24.957031 15.84375 46.277344 38 54.445312v18.882813c-83.304688 9.253906-149.628906 75.578125-158.882812 158.886719h-.222657c-42.398437-.003906-76.894531 34.492187-76.894531 76.890625 0 42.402343 34.496094 76.894531 76.894531 76.894531h34.785157l-30.675782 34.765625c-7.308594 8.285156-6.519531 20.921875 1.765625 28.230469 8.316407 7.339844 20.953125 6.484375 28.226563-1.765625l54.03125-61.230469h70.972656v48c0 11.046875 8.953125 20 20 20s20-8.953125 20-20v-48h70.976562l54.027344 61.230469c7.296875 8.273437 19.933594 9.085937 28.230469 1.765625 8.28125-7.308594 9.070313-19.945313 1.761719-28.230469l-30.675782-34.765625h34.785157c42.402343 0 76.894531-34.496094 76.894531-76.894531zm-256-327.105469c9.925781 0 18 8.074219 18 18s-8.074219 18-18 18-18-8.074219-18-18 8.074219-18 18-18zm0 130.214844c70.40625 0 128.839844 52.242187 138.578125 120h-277.152344c9.734375-67.757813 68.167969-120 138.574219-120zm-179.105469 233.785156c-20.34375 0-36.894531-16.550781-36.894531-36.894531s16.550781-36.890625 36.894531-36.890625h358.210938c20.34375 0 36.894531 16.546875 36.894531 36.890625s-16.546875 36.894531-36.894531 36.894531zm0 0" fill="url(#a)"/></svg>