<?xml version="1.0"?>
<svg xmlns="http://www.w3.org/2000/svg" xmlns:xlink="http://www.w3.org/1999/xlink" id="Layer_1" data-name="Layer 1" viewBox="0 0 512 512" width="512" height="512"><defs><linearGradient id="linear-gradient" x1="256" y1="478" x2="256" y2="25.558" gradientUnits="userSpaceOnUse"><stop offset="0.322" stop-color="#a163f5"/><stop offset="0.466" stop-color="#b074ee"/><stop offset="0.752" stop-color="#d8a1dd"/><stop offset="0.898" stop-color="#efbad3"/></linearGradient></defs><title>user location</title><path d="M426.407,291.221a6,6,0,0,0-5.727-4.213H328.269L359.4,245.386c19.721-26.295,29.419-57.915,27.311-89.019a135.637,135.637,0,0,0-39.061-86.885,127.5,127.5,0,0,0-180.745,0,135.623,135.623,0,0,0-39.059,86.876c-2.033,30.473,7.649,62.067,27.3,89.021l31.14,41.629H96.442a6,6,0,0,0-5.678,4.064L30.321,468.3A6,6,0,0,0,36,476.237H476a6,6,0,0,0,5.728-7.787Zm5.62,58.279H347.693l-8.079-50.492h76.653Zm-292.2-192.354a123.641,123.641,0,0,1,35.6-79.2,115.5,115.5,0,0,1,163.726,0,123.65,123.65,0,0,1,35.6,79.22c1.915,28.253-6.94,57.027-24.941,81.029L257.28,361.874,164.806,238.25C146.85,213.625,137.978,184.825,139.822,157.146ZM100.735,299.008H195.27l57.206,76.476a6,6,0,0,0,9.609,0l57.207-76.476h8.169l9.191,57.44a6,6,0,0,0,5.925,5.052h93.2L449.3,404.819H255.817a6,6,0,0,0-6,6v53.418H187.076l5-88.423a6,6,0,0,0-5.99-6.338H76.7ZM72.61,381.476H179.732l-4.675,82.761H44.386Zm189.207,82.761V416.819H453.041l14.8,47.418Z" style="fill:url(#linear-gradient)"/><path d="M314.476,240.159a5.973,5.973,0,0,0,1.169-.913,96,96,0,1,0-119.29,0,5.973,5.973,0,0,0,1.169.913,95.789,95.789,0,0,0,116.952,0ZM207.928,232.9a52.876,52.876,0,0,1,96.144,0,83.721,83.721,0,0,1-96.144,0ZM172,164.079A84,84,0,1,1,313.616,225.12a64.861,64.861,0,0,0-115.232,0A83.755,83.755,0,0,1,172,164.079Z" style="fill:url(#linear-gradient)"/><path d="M256,181.843a36,36,0,1,0-36-36A36.04,36.04,0,0,0,256,181.843Zm0-60a24,24,0,1,1-24,24A24.027,24.027,0,0,1,256,121.843Z" style="fill:url(#linear-gradient)"/></svg>
