<?xml version="1.0"?>
<svg xmlns="http://www.w3.org/2000/svg" xmlns:xlink="http://www.w3.org/1999/xlink" id="Layer_1" data-name="Layer 1" viewBox="0 0 512 512" width="512" height="512"><defs><linearGradient id="linear-gradient" x1="280.096" y1="482" x2="280.096" y2="29.363" gradientUnits="userSpaceOnUse"><stop offset="0.322" stop-color="#a163f5"/><stop offset="0.466" stop-color="#b074ee"/><stop offset="0.752" stop-color="#d8a1dd"/><stop offset="0.898" stop-color="#efbad3"/></linearGradient><linearGradient id="linear-gradient-2" x1="133.24" y1="482" x2="133.24" y2="29.363" xlink:href="#linear-gradient"/><linearGradient id="linear-gradient-3" x1="129.97" y1="482" x2="129.97" y2="29.363" xlink:href="#linear-gradient"/><linearGradient id="linear-gradient-4" x1="132.943" y1="482" x2="132.943" y2="29.363" xlink:href="#linear-gradient"/><linearGradient id="linear-gradient-5" x1="256" y1="482" x2="256" y2="29.363" xlink:href="#linear-gradient"/><linearGradient id="linear-gradient-6" x1="261.183" y1="482" x2="261.183" y2="29.363" xlink:href="#linear-gradient"/></defs><title>Airport location</title><path d="M364.8,200.317a32.028,32.028,0,0,0-21.947-8.661H210.138l-5.152-20.194a42.115,42.115,0,0,0-40.833-31.725,6,6,0,0,0-6,6v76.289A45.981,45.981,0,0,0,164.2,244.8a61.478,61.478,0,0,0,53.261,30.908h26.316l-15.566,27.608a6,6,0,0,0,5.227,8.948h20.568a59.127,59.127,0,0,0,47.837-24.481,6.066,6.066,0,0,0,.466-.758l3.106-6.019h64.707c.436,0,.869-.007,1.295-.022A31.122,31.122,0,0,0,399.9,260.426a31.732,31.732,0,0,0-8.108-34.882Zm-72.946,80.8a47.1,47.1,0,0,1-37.849,19.151h-10.3l21.313-37.8h36.458Zm96.805-24.9a19.355,19.355,0,0,1-17.655,12.779c-.293.01-.588.015-.883.015H311.608l1.885-3.653-.028-.015c1.411-3.132,1.057-9.691.115-11.535a6.069,6.069,0,0,0-5.419-3.339H261.516a6,6,0,0,0-5.227,3.053l-5.746,10.191H217.461a49.45,49.45,0,0,1-42.842-24.861,33.964,33.964,0,0,1-4.466-16.82V152.337a30.126,30.126,0,0,1,23.205,22.092l6.3,24.711a6,6,0,0,0,5.814,4.516H342.854a20.065,20.065,0,0,1,13.752,5.428l26.987,25.226A19.96,19.96,0,0,1,388.66,256.211Z" style="fill:url(#linear-gradient)"/><path d="M128.484,181.469H138a6,6,0,1,0,0-12h-9.512a6,6,0,0,0,0,12Z" style="fill:url(#linear-gradient-2)"/><path d="M143.94,203.651H116a6,6,0,0,0,0,12h27.94a6,6,0,0,0,0-12Z" style="fill:url(#linear-gradient-3)"/><path d="M139.779,237.834H126.106a6,6,0,0,0,0,12h13.673a6,6,0,0,0,0-12Z" style="fill:url(#linear-gradient-4)"/><path d="M408,74.111H104a44.05,44.05,0,0,0-44,44v205.1a44.049,44.049,0,0,0,44,44h97.832l22.4,57.116a5.919,5.919,0,0,0-4.981-2.067c-27.763,2.043-52.9,6.665-70.794,13.013C127.583,442.675,117,452.034,117,463.088c0,27.49,68.5,41.873,136.17,41.873,60.976,0,113.068-11.318,129.627-28.165,4.183-4.257,6.269-8.886,6.2-13.759-.032-10.884-10.481-20.124-31.06-27.466-17.738-6.329-42.654-10.937-70.159-12.974a6,6,0,1,0-.886,11.966C348.36,439.118,377,454.276,377,463.088c0,.034,0,.069,0,.1.026,1.555-.9,3.3-2.761,5.193-12,12.213-57.445,24.577-121.068,24.577-34.194,0-66.3-3.654-90.4-10.29C139.443,476.246,129,468.206,129,463.088c0-8.936,28.962-24.288,91.128-28.865a6,6,0,0,0,5.549-6.209L242.8,471.668a6.13,6.13,0,0,0,.524,1.031,11.206,11.206,0,0,0,18.908,0,6.056,6.056,0,0,0,.524-1.031l40.964-104.461H408a44.049,44.049,0,0,0,44-44v-205.1A44.05,44.05,0,0,0,408,74.111Zm32,249.1a32.036,32.036,0,0,1-32,32H299.623a6,6,0,0,0-5.586,3.81L252.773,464.242,211.509,359.017a6,6,0,0,0-5.586-3.81H104a32.036,32.036,0,0,1-32-32v-205.1a32.037,32.037,0,0,1,32-32H408a32.037,32.037,0,0,1,32,32Z" style="fill:url(#linear-gradient-5)"/><path d="M297.918,221.8H224.449a6,6,0,0,0,0,12h73.469a6,6,0,0,0,0-12Z" style="fill:url(#linear-gradient-6)"/></svg>
