<?xml version="1.0"?>
<svg xmlns="http://www.w3.org/2000/svg" xmlns:xlink="http://www.w3.org/1999/xlink" id="Layer_1" data-name="Layer 1" viewBox="0 0 512 512" width="512" height="512"><defs><linearGradient id="linear-gradient" x1="108.769" y1="472" x2="108.769" y2="31.346" gradientUnits="userSpaceOnUse"><stop offset="0.322" stop-color="#a163f5"/><stop offset="0.466" stop-color="#b074ee"/><stop offset="0.752" stop-color="#d8a1dd"/><stop offset="0.898" stop-color="#efbad3"/></linearGradient><linearGradient id="linear-gradient-2" x1="203.293" y1="472" x2="203.293" y2="31.346" xlink:href="#linear-gradient"/><linearGradient id="linear-gradient-7" x1="311.573" y1="472" x2="311.573" y2="31.346" xlink:href="#linear-gradient"/><linearGradient id="linear-gradient-8" x1="256" y1="472" x2="256" y2="31.346" xlink:href="#linear-gradient"/><linearGradient id="linear-gradient-9" x1="367.083" y1="472" x2="367.083" y2="31.346" xlink:href="#linear-gradient"/></defs><title>locate map building</title><path d="M125.441,152.331H92.1a6,6,0,0,0-6,6v44.458a6,6,0,0,0,6,6h33.344a6,6,0,0,0,6-6V158.331A6,6,0,0,0,125.441,152.331Zm-6,44.458H98.1V164.331h21.344Z" style="fill:url(#linear-gradient)"/><path d="M186.622,208.789h33.343a6,6,0,0,0,6-6V158.331a6,6,0,0,0-6-6H186.622a6,6,0,0,0-6,6v44.458A6,6,0,0,0,186.622,208.789Zm6-44.458h21.343v32.458H192.622Z" style="fill:url(#linear-gradient-2)"/><path d="M125.441,232.355H92.1a6,6,0,0,0-6,6v44.459a6,6,0,0,0,6,6h33.344a6,6,0,0,0,6-6V238.355A6,6,0,0,0,125.441,232.355Zm-6,44.459H98.1V244.355h21.344Z" style="fill:url(#linear-gradient)"/><path d="M186.622,288.814h33.343a6,6,0,0,0,6-6V238.355a6,6,0,0,0-6-6H186.622a6,6,0,0,0-6,6v44.459A6,6,0,0,0,186.622,288.814Zm6-44.459h21.343v32.459H192.622Z" style="fill:url(#linear-gradient-2)"/><path d="M125.441,312.38H92.1a6,6,0,0,0-6,6v44.459a6,6,0,0,0,6,6h33.344a6,6,0,0,0,6-6V318.38A6,6,0,0,0,125.441,312.38Zm-6,44.459H98.1V324.38h21.344Z" style="fill:url(#linear-gradient)"/><path d="M186.622,368.839h33.343a6,6,0,0,0,6-6V318.38a6,6,0,0,0-6-6H186.622a6,6,0,0,0-6,6v44.459A6,6,0,0,0,186.622,368.839Zm6-44.459h21.343v32.459H192.622Z" style="fill:url(#linear-gradient-2)"/><path d="M334.245,281.286V236.827a6,6,0,0,0-6-6H294.9a6,6,0,0,0-6,6v44.459a6,6,0,0,0,6,6h33.344A6,6,0,0,0,334.245,281.286Zm-12-6H300.9V242.827h21.344Z" style="fill:url(#linear-gradient-7)"/><path d="M373.083,299.238V197.232a6,6,0,0,0-6-6H262.062V104.147a6,6,0,0,0-2.4-4.8L159.631,24.324a6,6,0,0,0-7.2,0L52.4,99.347a6,6,0,0,0-2.4,4.8V398.683a6,6,0,0,0,6,6H272.776A94.916,94.916,0,1,0,373.083,299.238ZM250.062,392.683H62V107.147l94.031-70.523,94.031,70.523Zm22.121,0H262.062V203.232h99.021v96.006A95.033,95.033,0,0,0,272.183,392.683Zm94.9,84.193A82.917,82.917,0,1,1,450,393.959,83.01,83.01,0,0,1,367.083,476.876Z" style="fill:url(#linear-gradient-8)"/><path d="M406.105,342.092a55.1,55.1,0,0,0-78.043,0,58.382,58.382,0,0,0-16.86,37.332,55.227,55.227,0,0,0,3.329,22.737,59.192,59.192,0,0,0,12.691,20.173l35.487,37.8a6,6,0,0,0,8.749,0l35.486-37.8a59.174,59.174,0,0,0,12.692-20.174,55.227,55.227,0,0,0,3.329-22.736A58.382,58.382,0,0,0,406.105,342.092Zm2.258,55.955A47.259,47.259,0,0,1,398.2,414.12l-31.113,33.14-31.112-33.14A47.259,47.259,0,0,1,325.8,398.047a43.312,43.312,0,0,1-2.629-17.822,46.378,46.378,0,0,1,13.387-29.663,43.1,43.1,0,0,1,61.043,0,46.378,46.378,0,0,1,13.387,29.663A43.316,43.316,0,0,1,408.363,398.047Z" style="fill:url(#linear-gradient-9)"/><path d="M367.083,351.22c-15.124,0-27.428,12.563-27.428,28s12.3,28,27.428,28,27.429-12.563,27.429-28S382.208,351.22,367.083,351.22Zm0,44.009c-8.507,0-15.428-7.18-15.428-16s6.921-16,15.428-16,15.429,7.18,15.429,16S375.591,395.229,367.083,395.229Z" style="fill:url(#linear-gradient-9)"/></svg>
