<?xml version="1.0"?>
<svg xmlns="http://www.w3.org/2000/svg" xmlns:xlink="http://www.w3.org/1999/xlink" id="Layer_1" data-name="Layer 1" viewBox="0 0 512 512" width="512" height="512"><defs><linearGradient id="linear-gradient" x1="117" y1="463.599" x2="389" y2="463.599" gradientUnits="userSpaceOnUse"><stop offset="0.322" stop-color="#a163f5"/><stop offset="0.466" stop-color="#b074ee"/><stop offset="0.752" stop-color="#d8a1dd"/><stop offset="0.898" stop-color="#efbad3"/></linearGradient><linearGradient id="linear-gradient-2" x1="256" y1="488" x2="256" y2="29.045" xlink:href="#linear-gradient"/></defs><title>home location map pointer</title><path d="M253.17,504.961C185.5,504.961,117,490.578,117,463.088c0-11.054,10.583-20.413,31.454-27.819,17.889-6.348,43.031-10.97,70.794-13.013a6,6,0,1,1,.88,11.967C157.962,438.8,129,454.152,129,463.088c0,5.118,10.443,13.158,33.772,19.583,24.1,6.636,56.2,10.29,90.4,10.29,63.623,0,109.064-12.364,121.069-24.577,1.859-1.891,2.787-3.638,2.761-5.193,0-.034,0-.069,0-.1,0-8.812-28.638-23.97-90.107-28.525a6,6,0,1,1,.887-11.966c27.5,2.037,52.421,6.645,70.16,12.974,20.578,7.342,31.028,16.582,31.06,27.466.068,4.873-2.018,9.5-6.2,13.759C366.239,493.643,314.146,504.961,253.17,504.961Z" style="fill:url(#linear-gradient)"/><path d="M408,74.111H104a44.05,44.05,0,0,0-44,44v205.1a44.049,44.049,0,0,0,44,44h97.832L242.8,471.668a6.13,6.13,0,0,0,.524,1.031,11.206,11.206,0,0,0,18.908,0,5.984,5.984,0,0,0,.524-1.031l40.964-104.461H408a44.049,44.049,0,0,0,44-44v-205.1A44.05,44.05,0,0,0,408,74.111Zm32,249.1a32.036,32.036,0,0,1-32,32H299.623a6,6,0,0,0-5.586,3.81L252.773,464.242,211.509,359.017a6,6,0,0,0-5.586-3.81H104a32.036,32.036,0,0,1-32-32v-205.1a32.037,32.037,0,0,1,32-32H408a32.037,32.037,0,0,1,32,32Z" style="fill:url(#linear-gradient-2)"/><path d="M349.6,191.1l-90-67.5a6,6,0,0,0-7.2,0l-90,67.5a6,6,0,0,0-2.4,4.8v34.6a6,6,0,0,0,9.6,4.8l11.4-8.55V303.6a6,6,0,0,0,6,6H325a6,6,0,0,0,6-6V226.75l11.4,8.55a6,6,0,0,0,9.6-4.8V195.9A6,6,0,0,0,349.6,191.1ZM319,297.6H193V217.75l63-47.25,63,47.25Zm21-79.1-80.4-60.3a6,6,0,0,0-7.2,0L172,218.5V198.9l84-63,84,63Z" style="fill:url(#linear-gradient-2)"/></svg>
