<svg height="512pt" viewBox="0 0 512 512" width="512pt" xmlns="http://www.w3.org/2000/svg" xmlns:xlink="http://www.w3.org/1999/xlink"><linearGradient id="a" gradientUnits="userSpaceOnUse" x1="0" x2="512" y1="256" y2="256"><stop offset="0" stop-color="#80d8ff"/><stop offset="1" stop-color="#ea80fc"/></linearGradient><path d="m334.894531 357.296875v-61.277344h39.105469c11.046875 0 20-8.953125 20-20v-98.683593c0-32.71875-26.617188-59.335938-59.332031-59.335938h-10.007813c6.566406-11.515625 10.339844-24.820312 10.339844-39 0-43.5625-35.4375-79-79-79s-79 35.4375-79 79c0 14.179688 3.773438 27.484375 10.339844 39h-10.007813c-32.714843 0-59.332031 26.617188-59.332031 59.332031v98.6875c0 11.046875 8.953125 20 20 20h39.382812v61.253907c-55.25 4.738281-177.382812 20.769531-177.382812 75.726562 0 68.546875 187.054688 79 256 79 68.949219 0 256-10.453125 256-79 0-55.019531-121.863281-70.949219-177.105469-75.703125zm-117.894531-278.296875c0-21.503906 17.496094-39 39-39s39 17.496094 39 39-17.496094 39-39 39-39-17.496094-39-39zm-59 177.019531v-78.683593c0-10.664063 8.671875-19.335938 19.332031-19.335938h157.332031c10.660157 0 19.335938 8.675781 19.335938 19.335938v78.683593h-39.105469c-11.046875 0-20 8.957031-20 20v136.980469h-77.511719v-136.980469c0-11.042969-8.953124-20-20-20zm250.554688 201.53125c-41.847657 9.316407-96.027344 14.449219-152.554688 14.449219-56.53125 0-110.707031-5.132812-152.554688-14.449219-44.566406-9.921875-58.59375-20.628906-62.433593-24.554687 3.226562-3.292969 13.664062-11.371094 43.671875-19.84375 25.253906-7.128906 56.996094-12.492188 92.699218-15.714844v35.5625c0 11.046875 8.953126 20 20 20h117.511719c11.046875 0 20-8.953125 20-20v-35.535156c35.632813 3.230468 67.308594 8.585937 92.507813 15.710937 29.941406 8.464844 40.363281 16.53125 43.585937 19.820313-3.84375 3.921875-17.867187 14.632812-62.433593 24.554687zm0 0" fill="url(#a)"/></svg>