<?xml version="1.0"?>
<svg xmlns="http://www.w3.org/2000/svg" xmlns:xlink="http://www.w3.org/1999/xlink" id="Layer_1" data-name="Layer 1" viewBox="0 0 512 512" width="512" height="512"><defs><linearGradient id="linear-gradient" x1="256" y1="478" x2="256" y2="28.218" gradientUnits="userSpaceOnUse"><stop offset="0.322" stop-color="#a163f5"/><stop offset="0.466" stop-color="#b074ee"/><stop offset="0.752" stop-color="#d8a1dd"/><stop offset="0.898" stop-color="#efbad3"/></linearGradient><linearGradient id="linear-gradient-2" x1="113.162" y1="478" x2="113.162" y2="28.218" xlink:href="#linear-gradient"/><linearGradient id="linear-gradient-3" x1="398.838" y1="478" x2="398.838" y2="28.218" xlink:href="#linear-gradient"/><linearGradient id="linear-gradient-4" x1="256.096" y1="478" x2="256.096" y2="28.218" xlink:href="#linear-gradient"/><linearGradient id="linear-gradient-5" x1="255.999" y1="478" x2="255.999" y2="28.218" xlink:href="#linear-gradient"/></defs><title>Ratings 3 stras location pin</title><path d="M200.892,83.2l34.361,4.993,15.366,31.137a6,6,0,0,0,10.762,0l15.366-31.137L311.108,83.2a6,6,0,0,0,3.327-10.234L289.57,48.729l5.87-34.223a6,6,0,0,0-8.706-6.325L256,24.339,225.266,8.181a6,6,0,0,0-8.706,6.325l5.87,34.223L197.565,72.965A6,6,0,0,0,200.892,83.2ZM233.065,55.12a6,6,0,0,0,1.726-5.311l-4.349-25.35,22.766,11.969a5.994,5.994,0,0,0,5.584,0l22.766-11.969-4.349,25.35a6,6,0,0,0,1.726,5.311l18.418,17.952-25.453,3.7a6,6,0,0,0-4.518,3.282L256,103.116,244.618,80.053a6,6,0,0,0-4.518-3.282l-25.453-3.7Z" style="fill:url(#linear-gradient)"/><path d="M113.162,177.557a6,6,0,0,0,5.381-3.345l15.366-31.137,34.362-4.993a6,6,0,0,0,3.326-10.234l-24.865-24.237L152.6,69.389a6,6,0,0,0-8.707-6.326L113.162,79.222,82.429,63.063a6,6,0,0,0-8.706,6.326l5.869,34.222L54.728,127.848a6,6,0,0,0,3.326,10.234l34.361,4.993,15.366,31.137A6,6,0,0,0,113.162,177.557Zm-15.9-45.9-25.452-3.7L90.228,110a6,6,0,0,0,1.725-5.312L87.605,79.342,110.37,91.311a6,6,0,0,0,5.584,0L138.72,79.342l-4.349,25.349A6.005,6.005,0,0,0,136.1,110l18.418,17.952-25.453,3.7a6,6,0,0,0-4.518,3.283L113.162,158,101.78,134.936A6,6,0,0,0,97.262,131.653Z" style="fill:url(#linear-gradient-2)"/><path d="M432.408,103.611l5.869-34.222a6,6,0,0,0-8.706-6.326L398.838,79.222,368.1,63.063a6,6,0,0,0-8.707,6.326l5.871,34.222L340.4,127.848a6,6,0,0,0,3.326,10.234l34.362,4.993,15.366,31.137a6,6,0,0,0,10.762,0l15.366-31.137,34.361-4.993a6,6,0,0,0,3.326-10.234Zm-17.67,28.042a6,6,0,0,0-4.518,3.283L398.838,158l-11.382-23.063a6,6,0,0,0-4.518-3.283l-25.453-3.7L375.9,110a6.005,6.005,0,0,0,1.726-5.312L373.28,79.342l22.766,11.969a6,6,0,0,0,5.584,0L424.4,79.342l-4.348,25.349A6,6,0,0,0,421.772,110l18.418,17.952Z" style="fill:url(#linear-gradient-3)"/><path d="M217.09,224.564a58.024,58.024,0,0,0-.887,80.562,54.7,54.7,0,0,0,39.265,17.2c.207,0,.411,0,.617,0A54.7,54.7,0,0,0,295.1,305.994a58.021,58.021,0,0,0,.886-80.561,54.8,54.8,0,0,0-78.9-.869Zm82.717,41.2a45.452,45.452,0,0,1-13.21,31.768,42.79,42.79,0,0,1-30.516,12.8c-.16,0-.321,0-.48,0a42.791,42.791,0,0,1-30.709-13.476,46.025,46.025,0,0,1,.7-63.819,42.8,42.8,0,0,1,30.516-12.8c.16,0,.321,0,.48,0A42.79,42.79,0,0,1,287.3,233.71,45.446,45.446,0,0,1,299.807,265.76Z" style="fill:url(#linear-gradient-4)"/><path d="M172.067,183.794a127.519,127.519,0,0,0-37.716,81.137,120.274,120.274,0,0,0,6.714,49.582c5.574,15.81,14.755,30.748,27.291,44.4l81.36,88.594a6,6,0,0,0,4.352,1.941h.067a6,6,0,0,0,4.329-1.845l83.289-86.782c12.834-13.371,22.342-28.1,28.261-43.787a120.273,120.273,0,0,0,7.805-49.422A127.513,127.513,0,0,0,341.9,185.663a119.911,119.911,0,0,0-169.83-1.869Zm161.238,10.245a115.53,115.53,0,0,1,32.534,74.24,108.361,108.361,0,0,1-7.052,44.518c-5.344,14.157-13.987,27.518-25.692,39.715l-78.864,82.17L177.194,350.8c-11.432-12.449-19.78-26-24.81-40.271a108.354,108.354,0,0,1-6.071-44.662,115.534,115.534,0,0,1,34.161-73.506,107.124,107.124,0,0,1,75.542-30.884c.406,0,.815,0,1.222.007A107.143,107.143,0,0,1,333.305,194.039Z" style="fill:url(#linear-gradient-5)"/><path d="M392.2,428.687c-14.111-6.608-34.1-12.088-57.8-15.851a6,6,0,1,0-1.881,11.852c49.8,7.905,72.483,21.636,72.483,31.048,0,.035,0,.07,0,.1.037,2.175-1.182,4.536-3.622,7.019-4.571,4.651-17.356,13.544-51.627,20.858-26.953,5.752-59.3,8.792-93.547,8.792-92.441,0-149.2-21.418-149.2-36.773,0-9.306,22.112-22.978,70.661-31.006a6,6,0,1,0-1.957-11.839c-23.208,3.838-42.728,9.33-56.452,15.882C103.159,436.458,95,445.529,95,455.736c0,14.577,17.266,27.036,49.93,36.031,29.839,8.216,69.356,12.742,111.273,12.742,72.411,0,134.192-13.358,153.732-33.238,4.766-4.849,7.142-10.092,7.063-15.586C416.971,445.461,408.627,436.378,392.2,428.687Z" style="fill:url(#linear-gradient)"/></svg>
